<?xml version="1.0" encoding="utf-8"?>
<!-- Generator: Adobe Illustrator 27.6.0, SVG Export Plug-In . SVG Version: 6.00 Build 0)  -->
<svg version="1.1" id="Layer_1" xmlns="http://www.w3.org/2000/svg" xmlns:xlink="http://www.w3.org/1999/xlink" x="0px" y="0px"
	 viewBox="0 0 500 500" style="enable-background:new 0 0 500 500;" xml:space="preserve">
<style type="text/css">
	.st0{fill:#00294A;}
	.st1{fill:#FFFFFF;}
</style>
<path class="st0" d="M416.1,482.3H78.3c-32.8,0-59.7-26.9-59.7-59.7v-347C18.6,42.8,45.5,16,78.3,16h337.8
	c32.8,0,59.7,26.9,59.7,59.7v347C475.7,455.5,448.9,482.3,416.1,482.3z"/>
<path class="st1" d="M323.5,134.6c11.6,8.4,64.6,57.9,81.2,89.2c5.4-7.3,10.6-14.7,15.5-22.2C395.4,167.7,362.8,145.8,323.5,134.6z
	 M323.5,134.6c-0.4-0.3-0.7-0.6-1-0.7L323.5,134.6z M263.2,422.8c-0.1-0.6-0.1-1.1-0.1-1.7c2.1-69.9,6.4-139.7,12.6-209.1
	c0.1-1.9,4.6-23.1,4.6-23.1c1.4-6.6,4.8-12.6,9.6-17l19.9-18.3l-14.5-37.8c-1.4-3.6-3.8-6.6-6.7-8.6c22.1-8.2,46.3-13.2,72.2-15.8
	c20.2,12.2,38,24.3,48.2,35.8c-29.3-13-59.7-18.3-91.7-12.1c49.7,11.1,114,68.1,113.3,70.1c0,0,13.6-24.4,19.4-37.1
	c-23.1-31.7-49.4-61.2-78.5-88.7c-37.4,10-77.1,19-121.4,26.1c-42.7-5.6-82.4-15.5-121.3-26.4C99.4,86.4,73,115.9,49.9,147.5
	c5.8,12.7,12.2,25,19.3,37.1c25.8-34.5,62.1-58.9,113.3-69.7c-32.1-6.3-62.4-1-91.7,11.8c10.2-11.4,28-23.4,48.2-35.6
	c25.9,2.7,50.1,7.8,72.1,16c-3,2-5.4,5-6.7,8.6l-14.6,37.8l19.9,18.4c4.7,4.4,8.1,10.3,9.5,17c0,0,4.5,21.1,4.6,22.6
	c6.6,68.1,10.5,136.1,11.4,204c0.1,8.3,1.5,16.5,4.2,24.2c0,0.1,0.1,0.2,0.1,0.3s0.1,0.2,0.1,0.2c3,5.6,3,6.6,11.3,13.2
	c5.8,4.6,14.8,7.2,25.5,4c4-1.2,7.5-3.8,10.1-7.5c2.4-3.4,3.8-7.2,4.1-11.1c0.1-1,0.3-2.6,0.4-4.3c0.3-5-1.5-9.7-5-12.9
	c-0.4-0.4-0.9-0.8-1.2-1.1c-0.7-0.6-1.3-1.4-1.8-2.3c-0.6-1.4-1.4-3-1.7-3.8l0,0c-0.1-0.2-0.8-1.6-1.5-3.1c-0.5-1-1.6-1.5-2.6-1.2
	c-1,0.3-1.7,1.4-1.7,2.6c0.1,1,0.2,1.8,0.3,2.6c0.4,1.6,0.9,5.2,1.6,6.4c0.9,1.4,1.7,2.9,2.6,4.2c1.9,2.6,2,6.4,0.1,9.1
	c-0.1,0.1-0.1,0.1-0.1,0.2c-2.5,3.4-6.9,4.4-10.3,2.2c-0.5-0.3-1-0.6-1.4-1c-2.5-1.8-4.2-4.7-4.6-8
	C263.6,426.3,263.3,424,263.2,422.8z M232,186.8c-0.6-2.6,0,0-0.6-7.7c5.6-3,11.9-4.6,18.5-5.6c6.6,1,12.9,2.6,18.5,5.6
	c-0.6,7.8,0-0.1-0.6,7.7C266.4,184.8,242.7,182.6,232,186.8z M79.4,201.1c4.9,7.5,10.1,15,15.5,22.2c17.3-32.3,73.5-84,82.5-89.7
	C121.9,152.3,103.6,171.7,79.4,201.1z M329.8,162.8c0,0,36,66.4,45.6,96.5c6-6.6,11.7-13.3,17.2-20.1
	C376.4,209.1,366.1,189.4,329.8,162.8z M326,191c-1.7,4.2-2.6,10.1-2.5,17.4c0.4,21.6,7.9,54.9,15.8,87.2c7.6-7,15-14.1,22.1-21.4
	c-6.6-21.8-11.6-40.1-25.4-65.8C333.1,203,329.8,197.3,326,191z M314.6,166c0,0-15.2,16.9-20.1,22.4c-0.9,1-1.5,2.2-1.8,3.7
	c-4.8,21.2-5,82.1-5.3,88.1c-0.2,3.8,0.8,7.5,2.8,10.6c31.9,49.5,68.9,73.8,109.9,78c-48.3-27.4-84.5-60.5-98.9-129.1
	c-0.1-0.3-0.2-0.6-0.2-0.9c-0.5-2-0.8-4-1.1-6.1c-1.5-11.2,0.6-22.7,5.7-32.5C312.2,187.8,315,177,314.6,166z M169.9,162.6
	c-36.3,26.6-46.7,46.2-63,76.3c5.5,6.8,11.3,13.5,17.2,20.1C133.7,228.9,169.9,162.6,169.9,162.6z M173.7,190.9
	c-3.8,6.2-5.4,11.9-8.3,17.4c-13.8,25.8-20.6,43.9-27.2,65.7c7,7.3,14.4,14.4,22,21.4c8-32.3,15.6-65.5,16-87.1
	C176.3,201,175.3,195,173.7,190.9z M185.1,165.8c-0.5,11,2.4,21.8,9.1,34.3c5.1,9.8,7.1,21.3,5.6,32.5c-0.3,2.1-0.6,4.1-1.1,6.1
	c-0.1,0.3-0.2,0.6-0.2,0.9c-14.6,68.5-50.9,101.6-99.2,128.9c41-4.1,78.1-28.3,110.1-77.7c2-3,3-6.8,2.8-10.6
	c-0.2-6.1-0.3-66.9-5.1-88.1c-0.3-1.4-1-2.6-1.8-3.7C200.3,182.8,185.1,165.8,185.1,165.8z"/>
</svg>
